<mxfile host="app.diagrams.net" modified="2023-08-28T12:27:24.807Z" agent="Mozilla/5.0 (Macintosh; Intel Mac OS X 10.15; rv:109.0) Gecko/20100101 Firefox/116.0" etag="S82l5p6MMeALDx1P7lVe" version="21.6.9" type="device">
  <diagram id="C5RBs43oDa-KdzZeNtuy" name="Page-1">
    <mxGraphModel dx="1674" dy="1938" grid="1" gridSize="10" guides="1" tooltips="1" connect="1" arrows="1" fold="1" page="1" pageScale="1" pageWidth="827" pageHeight="1169" math="0" shadow="0">
      <root>
        <mxCell id="WIyWlLk6GJQsqaUBKTNV-0" />
        <mxCell id="WIyWlLk6GJQsqaUBKTNV-1" parent="WIyWlLk6GJQsqaUBKTNV-0" />
        <mxCell id="BKAA_yEhutx5qdsNV9IJ-3" value="" style="edgeStyle=orthogonalEdgeStyle;rounded=0;orthogonalLoop=1;jettySize=auto;html=1;" edge="1" parent="WIyWlLk6GJQsqaUBKTNV-1" target="BKAA_yEhutx5qdsNV9IJ-1">
          <mxGeometry relative="1" as="geometry">
            <mxPoint x="140" y="210" as="sourcePoint" />
          </mxGeometry>
        </mxCell>
        <mxCell id="BKAA_yEhutx5qdsNV9IJ-4" value="" style="edgeStyle=orthogonalEdgeStyle;rounded=0;orthogonalLoop=1;jettySize=auto;html=1;" edge="1" parent="WIyWlLk6GJQsqaUBKTNV-1" source="BKAA_yEhutx5qdsNV9IJ-1" target="BKAA_yEhutx5qdsNV9IJ-2">
          <mxGeometry relative="1" as="geometry" />
        </mxCell>
        <mxCell id="BKAA_yEhutx5qdsNV9IJ-1" value="Show menu" style="rounded=1;whiteSpace=wrap;html=1;absoluteArcSize=1;arcSize=14;strokeWidth=2;" vertex="1" parent="WIyWlLk6GJQsqaUBKTNV-1">
          <mxGeometry x="180" y="180" width="190" height="60" as="geometry" />
        </mxCell>
        <mxCell id="BKAA_yEhutx5qdsNV9IJ-6" value="" style="edgeStyle=orthogonalEdgeStyle;rounded=0;orthogonalLoop=1;jettySize=auto;html=1;" edge="1" parent="WIyWlLk6GJQsqaUBKTNV-1" source="BKAA_yEhutx5qdsNV9IJ-2" target="BKAA_yEhutx5qdsNV9IJ-5">
          <mxGeometry relative="1" as="geometry" />
        </mxCell>
        <mxCell id="BKAA_yEhutx5qdsNV9IJ-7" value="EXIT" style="edgeLabel;html=1;align=center;verticalAlign=middle;resizable=0;points=[];" vertex="1" connectable="0" parent="BKAA_yEhutx5qdsNV9IJ-6">
          <mxGeometry x="0.1111" y="2" relative="1" as="geometry">
            <mxPoint as="offset" />
          </mxGeometry>
        </mxCell>
        <mxCell id="BKAA_yEhutx5qdsNV9IJ-9" value="" style="edgeStyle=orthogonalEdgeStyle;rounded=0;orthogonalLoop=1;jettySize=auto;html=1;" edge="1" parent="WIyWlLk6GJQsqaUBKTNV-1" source="BKAA_yEhutx5qdsNV9IJ-2" target="BKAA_yEhutx5qdsNV9IJ-8">
          <mxGeometry relative="1" as="geometry" />
        </mxCell>
        <mxCell id="BKAA_yEhutx5qdsNV9IJ-10" value="register" style="edgeLabel;html=1;align=center;verticalAlign=middle;resizable=0;points=[];" vertex="1" connectable="0" parent="BKAA_yEhutx5qdsNV9IJ-9">
          <mxGeometry x="-0.1333" y="2" relative="1" as="geometry">
            <mxPoint as="offset" />
          </mxGeometry>
        </mxCell>
        <mxCell id="BKAA_yEhutx5qdsNV9IJ-12" value="" style="edgeStyle=orthogonalEdgeStyle;rounded=0;orthogonalLoop=1;jettySize=auto;html=1;" edge="1" parent="WIyWlLk6GJQsqaUBKTNV-1" source="BKAA_yEhutx5qdsNV9IJ-2" target="BKAA_yEhutx5qdsNV9IJ-11">
          <mxGeometry relative="1" as="geometry" />
        </mxCell>
        <mxCell id="BKAA_yEhutx5qdsNV9IJ-13" value="login" style="edgeLabel;html=1;align=center;verticalAlign=middle;resizable=0;points=[];" vertex="1" connectable="0" parent="BKAA_yEhutx5qdsNV9IJ-12">
          <mxGeometry x="0.0182" y="2" relative="1" as="geometry">
            <mxPoint as="offset" />
          </mxGeometry>
        </mxCell>
        <mxCell id="BKAA_yEhutx5qdsNV9IJ-2" value="&lt;div&gt;Register&lt;/div&gt;&lt;div&gt;Login&lt;/div&gt;&lt;div&gt;Exit&lt;br&gt;&lt;/div&gt;" style="strokeWidth=2;html=1;shape=mxgraph.flowchart.decision;whiteSpace=wrap;" vertex="1" parent="WIyWlLk6GJQsqaUBKTNV-1">
          <mxGeometry x="420" y="160" width="120" height="100" as="geometry" />
        </mxCell>
        <mxCell id="BKAA_yEhutx5qdsNV9IJ-5" value="Program stop" style="verticalLabelPosition=bottom;verticalAlign=top;html=1;shape=mxgraph.flowchart.or;" vertex="1" parent="WIyWlLk6GJQsqaUBKTNV-1">
          <mxGeometry x="445" y="350" width="70" height="70" as="geometry" />
        </mxCell>
        <mxCell id="BKAA_yEhutx5qdsNV9IJ-15" value="" style="edgeStyle=orthogonalEdgeStyle;rounded=0;orthogonalLoop=1;jettySize=auto;html=1;" edge="1" parent="WIyWlLk6GJQsqaUBKTNV-1" source="BKAA_yEhutx5qdsNV9IJ-8" target="BKAA_yEhutx5qdsNV9IJ-14">
          <mxGeometry relative="1" as="geometry" />
        </mxCell>
        <mxCell id="BKAA_yEhutx5qdsNV9IJ-8" value="Show Registration mask" style="rounded=1;whiteSpace=wrap;html=1;" vertex="1" parent="WIyWlLk6GJQsqaUBKTNV-1">
          <mxGeometry x="420" y="10" width="120" height="60" as="geometry" />
        </mxCell>
        <mxCell id="BKAA_yEhutx5qdsNV9IJ-30" value="" style="edgeStyle=orthogonalEdgeStyle;rounded=0;orthogonalLoop=1;jettySize=auto;html=1;" edge="1" parent="WIyWlLk6GJQsqaUBKTNV-1" source="BKAA_yEhutx5qdsNV9IJ-11" target="BKAA_yEhutx5qdsNV9IJ-29">
          <mxGeometry relative="1" as="geometry" />
        </mxCell>
        <mxCell id="BKAA_yEhutx5qdsNV9IJ-11" value="Show Login mask" style="rounded=1;whiteSpace=wrap;html=1;absoluteArcSize=1;arcSize=14;strokeWidth=2;" vertex="1" parent="WIyWlLk6GJQsqaUBKTNV-1">
          <mxGeometry x="650" y="180" width="130" height="60" as="geometry" />
        </mxCell>
        <mxCell id="BKAA_yEhutx5qdsNV9IJ-17" value="" style="edgeStyle=orthogonalEdgeStyle;rounded=0;orthogonalLoop=1;jettySize=auto;html=1;" edge="1" parent="WIyWlLk6GJQsqaUBKTNV-1" source="BKAA_yEhutx5qdsNV9IJ-14" target="BKAA_yEhutx5qdsNV9IJ-16">
          <mxGeometry relative="1" as="geometry" />
        </mxCell>
        <mxCell id="BKAA_yEhutx5qdsNV9IJ-14" value="Enter data" style="rounded=1;whiteSpace=wrap;html=1;" vertex="1" parent="WIyWlLk6GJQsqaUBKTNV-1">
          <mxGeometry x="610" y="10" width="120" height="60" as="geometry" />
        </mxCell>
        <mxCell id="BKAA_yEhutx5qdsNV9IJ-21" value="" style="edgeStyle=orthogonalEdgeStyle;rounded=0;orthogonalLoop=1;jettySize=auto;html=1;" edge="1" parent="WIyWlLk6GJQsqaUBKTNV-1" source="BKAA_yEhutx5qdsNV9IJ-16" target="BKAA_yEhutx5qdsNV9IJ-18">
          <mxGeometry relative="1" as="geometry" />
        </mxCell>
        <mxCell id="BKAA_yEhutx5qdsNV9IJ-16" value="Validate data" style="rounded=1;whiteSpace=wrap;html=1;" vertex="1" parent="WIyWlLk6GJQsqaUBKTNV-1">
          <mxGeometry x="800" y="10" width="120" height="60" as="geometry" />
        </mxCell>
        <mxCell id="BKAA_yEhutx5qdsNV9IJ-19" style="edgeStyle=orthogonalEdgeStyle;rounded=0;orthogonalLoop=1;jettySize=auto;html=1;exitX=0.5;exitY=0;exitDx=0;exitDy=0;entryX=0.5;entryY=0;entryDx=0;entryDy=0;" edge="1" parent="WIyWlLk6GJQsqaUBKTNV-1" source="BKAA_yEhutx5qdsNV9IJ-18" target="BKAA_yEhutx5qdsNV9IJ-14">
          <mxGeometry relative="1" as="geometry" />
        </mxCell>
        <mxCell id="BKAA_yEhutx5qdsNV9IJ-20" value="non" style="edgeLabel;html=1;align=center;verticalAlign=middle;resizable=0;points=[];" vertex="1" connectable="0" parent="BKAA_yEhutx5qdsNV9IJ-19">
          <mxGeometry x="-0.281" relative="1" as="geometry">
            <mxPoint as="offset" />
          </mxGeometry>
        </mxCell>
        <mxCell id="BKAA_yEhutx5qdsNV9IJ-23" value="" style="edgeStyle=orthogonalEdgeStyle;rounded=0;orthogonalLoop=1;jettySize=auto;html=1;" edge="1" parent="WIyWlLk6GJQsqaUBKTNV-1" source="BKAA_yEhutx5qdsNV9IJ-18" target="BKAA_yEhutx5qdsNV9IJ-22">
          <mxGeometry relative="1" as="geometry" />
        </mxCell>
        <mxCell id="BKAA_yEhutx5qdsNV9IJ-24" value="Yes" style="edgeLabel;html=1;align=center;verticalAlign=middle;resizable=0;points=[];" vertex="1" connectable="0" parent="BKAA_yEhutx5qdsNV9IJ-23">
          <mxGeometry x="0.075" y="-2" relative="1" as="geometry">
            <mxPoint as="offset" />
          </mxGeometry>
        </mxCell>
        <mxCell id="BKAA_yEhutx5qdsNV9IJ-18" value="Valid?" style="rhombus;whiteSpace=wrap;html=1;" vertex="1" parent="WIyWlLk6GJQsqaUBKTNV-1">
          <mxGeometry x="1000" width="80" height="80" as="geometry" />
        </mxCell>
        <mxCell id="BKAA_yEhutx5qdsNV9IJ-27" value="" style="edgeStyle=orthogonalEdgeStyle;rounded=0;orthogonalLoop=1;jettySize=auto;html=1;" edge="1" parent="WIyWlLk6GJQsqaUBKTNV-1" source="BKAA_yEhutx5qdsNV9IJ-22" target="BKAA_yEhutx5qdsNV9IJ-26">
          <mxGeometry relative="1" as="geometry" />
        </mxCell>
        <mxCell id="BKAA_yEhutx5qdsNV9IJ-22" value="Add new user" style="rounded=1;whiteSpace=wrap;html=1;" vertex="1" parent="WIyWlLk6GJQsqaUBKTNV-1">
          <mxGeometry x="1160" y="10" width="120" height="60" as="geometry" />
        </mxCell>
        <mxCell id="BKAA_yEhutx5qdsNV9IJ-25" value="" style="ellipse;whiteSpace=wrap;html=1;aspect=fixed;" vertex="1" parent="WIyWlLk6GJQsqaUBKTNV-1">
          <mxGeometry x="90" y="185" width="50" height="50" as="geometry" />
        </mxCell>
        <mxCell id="BKAA_yEhutx5qdsNV9IJ-28" style="edgeStyle=orthogonalEdgeStyle;rounded=0;orthogonalLoop=1;jettySize=auto;html=1;exitX=0.5;exitY=0;exitDx=0;exitDy=0;entryX=0.5;entryY=0;entryDx=0;entryDy=0;" edge="1" parent="WIyWlLk6GJQsqaUBKTNV-1" source="BKAA_yEhutx5qdsNV9IJ-26" target="BKAA_yEhutx5qdsNV9IJ-1">
          <mxGeometry relative="1" as="geometry">
            <Array as="points">
              <mxPoint x="1400" y="-40" />
              <mxPoint x="275" y="-40" />
            </Array>
          </mxGeometry>
        </mxCell>
        <mxCell id="BKAA_yEhutx5qdsNV9IJ-26" value="Send welcome mail" style="rounded=1;whiteSpace=wrap;html=1;" vertex="1" parent="WIyWlLk6GJQsqaUBKTNV-1">
          <mxGeometry x="1340" y="10" width="120" height="60" as="geometry" />
        </mxCell>
        <mxCell id="BKAA_yEhutx5qdsNV9IJ-32" value="" style="edgeStyle=orthogonalEdgeStyle;rounded=0;orthogonalLoop=1;jettySize=auto;html=1;" edge="1" parent="WIyWlLk6GJQsqaUBKTNV-1" source="BKAA_yEhutx5qdsNV9IJ-29" target="BKAA_yEhutx5qdsNV9IJ-31">
          <mxGeometry relative="1" as="geometry" />
        </mxCell>
        <mxCell id="BKAA_yEhutx5qdsNV9IJ-29" value="Enter login data" style="rounded=1;whiteSpace=wrap;html=1;absoluteArcSize=1;arcSize=14;strokeWidth=2;" vertex="1" parent="WIyWlLk6GJQsqaUBKTNV-1">
          <mxGeometry x="870" y="180" width="130" height="60" as="geometry" />
        </mxCell>
        <mxCell id="BKAA_yEhutx5qdsNV9IJ-34" value="" style="edgeStyle=orthogonalEdgeStyle;rounded=0;orthogonalLoop=1;jettySize=auto;html=1;" edge="1" parent="WIyWlLk6GJQsqaUBKTNV-1" source="BKAA_yEhutx5qdsNV9IJ-31" target="BKAA_yEhutx5qdsNV9IJ-33">
          <mxGeometry relative="1" as="geometry" />
        </mxCell>
        <mxCell id="BKAA_yEhutx5qdsNV9IJ-31" value="Validate data with internal database" style="rounded=1;whiteSpace=wrap;html=1;absoluteArcSize=1;arcSize=14;strokeWidth=2;" vertex="1" parent="WIyWlLk6GJQsqaUBKTNV-1">
          <mxGeometry x="1080" y="180" width="130" height="60" as="geometry" />
        </mxCell>
        <mxCell id="BKAA_yEhutx5qdsNV9IJ-36" value="" style="edgeStyle=orthogonalEdgeStyle;rounded=0;orthogonalLoop=1;jettySize=auto;html=1;" edge="1" parent="WIyWlLk6GJQsqaUBKTNV-1" source="BKAA_yEhutx5qdsNV9IJ-33" target="BKAA_yEhutx5qdsNV9IJ-35">
          <mxGeometry relative="1" as="geometry" />
        </mxCell>
        <mxCell id="BKAA_yEhutx5qdsNV9IJ-33" value="Show Welcome Message / Success" style="rounded=1;whiteSpace=wrap;html=1;absoluteArcSize=1;arcSize=14;strokeWidth=2;" vertex="1" parent="WIyWlLk6GJQsqaUBKTNV-1">
          <mxGeometry x="1290" y="180" width="130" height="60" as="geometry" />
        </mxCell>
        <mxCell id="BKAA_yEhutx5qdsNV9IJ-37" style="edgeStyle=orthogonalEdgeStyle;rounded=0;orthogonalLoop=1;jettySize=auto;html=1;exitX=0.5;exitY=1;exitDx=0;exitDy=0;entryX=0.5;entryY=1;entryDx=0;entryDy=0;" edge="1" parent="WIyWlLk6GJQsqaUBKTNV-1" source="BKAA_yEhutx5qdsNV9IJ-35" target="BKAA_yEhutx5qdsNV9IJ-1">
          <mxGeometry relative="1" as="geometry">
            <Array as="points">
              <mxPoint x="1565" y="290" />
              <mxPoint x="275" y="290" />
            </Array>
          </mxGeometry>
        </mxCell>
        <mxCell id="BKAA_yEhutx5qdsNV9IJ-35" value="Logout" style="rounded=1;whiteSpace=wrap;html=1;absoluteArcSize=1;arcSize=14;strokeWidth=2;" vertex="1" parent="WIyWlLk6GJQsqaUBKTNV-1">
          <mxGeometry x="1500" y="180" width="130" height="60" as="geometry" />
        </mxCell>
      </root>
    </mxGraphModel>
  </diagram>
</mxfile>
